# xmcd
#
# Track frame offsets:
#	150
#	18254
#	42195
#	55622
#	88516
#	110528
#	141432
#	166330
#	190563
#	213781
#	234936
#	263166
#	277485
#	299544
#	330651
#
# Disc length: 4607 seconds
# Revision: 0
# Processed by: cddbd v1.5.2PL0 Copyright (c) Steve Scherf et al.
# Submitted via: dBpowerAMP V12.0
#
DISCID=d511fd0f
DTITLE=Various Artist - Peter Green Songbook
DYEAR=1995
DGENRE=
TTITLE0=Larry McCray - Black Magic Woman
TTITLE1=Luther Grosvenor - Crying Won't Bring You Back
TTITLE2=Ian Anderson - Man of the World
TTITLE3=Snowy White - Lookin' for Somebody
TTITLE4=Southside Johnny - Baby When the Sun Goes Down
TTITLE5=Rory Gallagher - Leavin' Town Blues
TTITLE6=Vince Converse and Steve Robinson - Rattlesnake Shake
TTITLE7=Jon Paris - Ramblin' Pony
TTITLE8=Arthur Brown - The Green Manalishi
TTITLE9=Jess Roden - Merry Go Round
TTITLE10=Dave Peverett - Love That Burns
TTITLE11=Kim Simmonds - Stop Messin' Round
TTITLE12=Jon Paris - Long Grey Mare
TTITLE13=Rory Gallagher - Showbiz Blues
TTITLE14=Clas Yngstrom - The Supernatural
EXTD=
EXTT0=
EXTT1=
EXTT2=
EXTT3=
EXTT4=
EXTT5=
EXTT6=
EXTT7=
EXTT8=
EXTT9=
EXTT10=
EXTT11=
EXTT12=
EXTT13=
EXTT14=
PLAYORDER=
